<svg width="140" height="140" viewBox="0 0 140 140" fill="none" xmlns="http://www.w3.org/2000/svg">
<path d="M35.755 70.789C35.755 51.809 51.111 36.421 70.05 36.421C75.588 58.041 91.8 97.364 91.559 97.559C85.678 102.312 78.196 105.157 70.05 105.157C51.111 105.156 35.755 89.77 35.755 70.789Z" fill="#0C133D"/>
<path d="M35.755 70.789C35.755 51.809 51.111 36.421 70.05 36.421C75.588 58.041 91.8 97.364 91.559 97.559C85.678 102.312 78.196 105.157 70.05 105.157C51.111 105.156 35.755 89.77 35.755 70.789Z" stroke="#6C6B70" stroke-width="1.0171"/>
<path d="M103.931 111.516C103.084 112.147 99.875 114.438 98.991 115.022C90.473 120.657 80.361 123.942 69.425 123.942C39.819 123.942 15.821 99.892 15.821 70.226C15.821 41.827 37.81 18.574 65.658 16.642L70.543 16.49" stroke="#C5C6CB" stroke-width="2.4411" stroke-miterlimit="3.864"/>
<path d="M96.914 103.393C89.216 109.984 79.225 113.964 68.302 113.964C43.948 113.964 24.205 94.182 24.205 69.779C24.205 45.378 43.947 25.595 68.302 25.595" stroke="#C5C6CB" stroke-width="0.8939" stroke-miterlimit="3.864"/>
<path d="M87.5 82.201L54.05 85.215L54.061 100.292C60.153 104.586 75.107 107.359 87.567 99.516L87.5 82.201Z" fill="#FCB11B"/>
<path d="M62.471 52.829L63.73 48.21L66.839 45.081L67.025 49.907L62.471 52.829Z" fill="#6C6B70"/>
<path d="M66.678 49.651L66.997 29.14L76.91 27.886L77.072 48.448L66.678 49.651Z" fill="#FCB11B"/>
<path d="M69.483 41.712L73.226 41.177L73.126 35.657C71.873 34.401 70.633 34.559 69.571 36.213L69.483 41.712Z" fill="white"/>
<path d="M69.927 17.866L68.948 18.752V27.445L75.234 26.557L74.968 16.98L69.927 17.866Z" fill="#FCB11B"/>
<path d="M70.793 23.763L73.111 23.496L73.014 21.017C72.435 19.986 71.396 20.063 70.802 21.194L70.793 23.763Z" fill="white"/>
<path d="M62.668 52.449C58.955 54.816 57.188 57.271 57.361 59.81L57.01 81.75L53.89 85.566L54.048 85.398L87.269 82.502L87.257 99.916C89.03 98.885 90.713 97.608 91.986 96.635L91.856 87.741C91.905 87.837 89.928 84.887 89.928 84.887L89.362 60.405C87.914 54.641 86.029 51.535 83.288 50.852L83.01 50.809L81.342 32.537C81.019 30.272 79.244 27.567 78.508 27.035L77.272 24.381C76.937 21.112 76.724 17.161 76.724 17.161C76.613 15.153 75.712 12.848 73.114 10.189C69.486 14.091 69.146 16.14 68.949 18.752L74.585 17.862L75.013 25.874L69.04 26.983C68.167 27.562 67.491 28.106 67.021 28.651C65.521 30.06 64.062 31.289 63.782 34.743M66.941 40.784L66.979 39.115L67.081 35.353L67.069 35.356L67.21 29.634L76.137 28.333L76.444 33.525L76.4 33.509L76.844 48.113L66.711 49.37L66.936 40.782L66.941 40.784ZM78.714 51.575L78.683 59.56L78.6 59.545L62.669 61.498L62.916 53.951L78.714 51.575ZM61.343 82.9L61.254 64.168L78.75 62.063L78.916 81.122L61.343 82.9Z" fill="#6C6B70"/>
<path d="M53.158 127.277C53.123 127.423 53.055 127.535 52.941 127.607C52.833 127.68 52.701 127.701 52.544 127.673C52.404 127.646 52.29 127.576 52.211 127.472C52.132 127.368 52.104 127.236 52.132 127.076C52.159 126.93 52.233 126.82 52.346 126.748C52.453 126.677 52.588 126.649 52.742 126.677C52.887 126.705 52.998 126.772 53.082 126.873C53.16 126.978 53.188 127.111 53.158 127.277ZM53.309 126.014C53.287 126.127 53.232 126.218 53.145 126.287C53.06 126.353 52.942 126.379 52.798 126.353C52.668 126.325 52.571 126.257 52.516 126.16C52.458 126.058 52.442 125.957 52.464 125.844C52.49 125.721 52.55 125.625 52.647 125.564C52.743 125.502 52.847 125.479 52.968 125.502C53.094 125.527 53.19 125.59 53.248 125.683C53.313 125.775 53.33 125.887 53.309 126.014ZM53.52 127.346C53.555 127.177 53.528 127.026 53.459 126.893C53.386 126.762 53.274 126.657 53.135 126.588L53.137 126.575C53.248 126.569 53.358 126.523 53.465 126.439C53.57 126.348 53.642 126.215 53.681 126.029C53.708 125.893 53.695 125.765 53.642 125.65C53.589 125.537 53.51 125.443 53.401 125.363C53.296 125.285 53.169 125.232 53.026 125.206C52.886 125.178 52.751 125.178 52.619 125.212C52.489 125.242 52.381 125.301 52.286 125.387C52.198 125.475 52.137 125.586 52.109 125.725C52.079 125.911 52.095 126.065 52.16 126.184C52.225 126.303 52.307 126.385 52.411 126.434L52.407 126.444C52.251 126.458 52.114 126.51 51.995 126.608C51.879 126.704 51.801 126.838 51.766 127.004C51.722 127.264 51.766 127.483 51.902 127.656C52.04 127.83 52.233 127.943 52.487 127.994C52.738 128.043 52.959 128.01 53.152 127.896C53.343 127.788 53.467 127.602 53.52 127.346Z" fill="#6C6B70"/>
<path d="M46.721 16.435C46.619 16.182 46.471 16.006 46.271 15.906C46.07 15.809 45.846 15.804 45.599 15.892C45.558 15.91 45.495 15.941 45.43 15.975C45.365 16.014 45.311 16.047 45.277 16.081L45.043 15.434L46.084 15.035L45.957 14.709L44.581 15.237L45.069 16.599C45.142 16.522 45.224 16.453 45.311 16.393C45.402 16.332 45.476 16.29 45.547 16.264C45.733 16.189 45.897 16.18 46.048 16.234C46.194 16.283 46.307 16.402 46.38 16.587C46.441 16.754 46.441 16.902 46.382 17.029C46.322 17.155 46.224 17.25 46.085 17.308C45.97 17.349 45.864 17.361 45.765 17.338C45.668 17.316 45.572 17.254 45.481 17.152L45.175 17.406C45.304 17.55 45.452 17.64 45.623 17.676C45.794 17.714 45.968 17.697 46.145 17.631C46.312 17.565 46.45 17.472 46.562 17.35C46.669 17.226 46.742 17.087 46.771 16.93C46.799 16.772 46.787 16.606 46.721 16.435Z" fill="#6C6B70"/>
<path d="M97.154 125.844L97.015 125.55L95.766 126.137L96.216 124.961C96.282 124.801 96.326 124.639 96.351 124.473C96.377 124.307 96.355 124.143 96.285 123.979C96.174 123.756 96.015 123.62 95.816 123.572C95.613 123.528 95.402 123.555 95.181 123.656C94.962 123.759 94.807 123.897 94.707 124.071C94.611 124.247 94.594 124.454 94.661 124.688L95.041 124.55C95.009 124.419 95.013 124.301 95.063 124.197C95.108 124.093 95.194 124.009 95.319 123.954C95.44 123.897 95.554 123.883 95.669 123.917C95.78 123.954 95.869 124.027 95.932 124.15C95.974 124.254 95.992 124.361 95.974 124.472C95.96 124.582 95.934 124.689 95.897 124.788L95.358 126.247L95.528 126.604L97.154 125.844Z" fill="#6C6B70"/>
<path d="M90.703 125.443L90.582 125.146L88.983 125.793L89.104 126.094L90.334 125.598L90.208 128.263L90.597 128.109L90.703 125.443Z" fill="#6C6B70"/>
<path d="M29.896 113.467L29.308 112.856L30.878 112.506L30.882 112.508L29.896 113.467ZM30.188 114.24L30.422 114.013L30.154 113.736L31.459 112.473L31.147 112.146L29.119 112.582L28.848 112.847L29.661 113.694L29.225 114.114L29.482 114.384L29.917 113.965L30.188 114.24Z" fill="#6C6B70"/>
<path d="M19.66 40.134C19.522 40.03 19.376 39.975 19.216 39.974C19.062 39.972 18.914 40.031 18.788 40.149L18.78 40.147C18.83 40.005 18.835 39.87 18.799 39.736C18.757 39.599 18.679 39.485 18.567 39.396C18.429 39.296 18.296 39.244 18.16 39.238C18.024 39.232 17.898 39.263 17.779 39.332C17.66 39.399 17.555 39.496 17.463 39.617C17.351 39.764 17.285 39.926 17.268 40.091C17.244 40.261 17.283 40.429 17.374 40.593L17.707 40.366C17.654 40.275 17.63 40.178 17.631 40.08C17.634 39.981 17.666 39.891 17.731 39.808C17.81 39.699 17.907 39.636 18.016 39.613C18.128 39.592 18.245 39.622 18.364 39.708C18.474 39.787 18.532 39.888 18.532 40.011C18.532 40.135 18.45 40.308 18.287 40.53L18.544 40.725C18.612 40.629 18.693 40.542 18.782 40.461C18.871 40.379 18.969 40.332 19.074 40.312C19.183 40.295 19.295 40.329 19.416 40.419C19.533 40.511 19.597 40.625 19.61 40.76C19.618 40.897 19.583 41.026 19.491 41.143C19.407 41.257 19.314 41.324 19.218 41.346C19.123 41.367 19.008 41.355 18.877 41.309L18.737 41.695C18.941 41.766 19.129 41.772 19.299 41.703C19.472 41.64 19.618 41.519 19.748 41.348C19.845 41.216 19.914 41.077 19.947 40.932C19.981 40.786 19.977 40.645 19.935 40.506C19.893 40.365 19.799 40.241 19.66 40.134Z" fill="#6C6B70"/>
<path d="M38.652 59.289L27.401 55.267M54.966 119.818L53.62 123.743M60.229 121.07L59.31 125.183M92.116 116.67L94.019 120.264M86.006 114.92L88.974 122.609M39.577 102.25L33.974 108.166M40.951 54.028L22.198 43.041" stroke="#6C6B70" stroke-width="0.7198" stroke-miterlimit="3.864"/>
<path d="M61.133 54.001L79.392 51.519L79.01 81.157L61.223 83.311L61.133 54.001Z" fill="#FCB11B"/>
<path d="M46.991 19.197L69.087 66.768M44.212 25.061L68.44 66.5M42.93 48.432L67.684 67.989" stroke="#6C6B70" stroke-width="0.7198" stroke-miterlimit="3.864"/>
<path d="M65.378 70.823C65.378 68.212 67.492 66.092 70.098 66.092C72.705 66.092 74.818 68.212 74.818 70.823C74.818 73.435 72.706 75.553 70.098 75.553C67.492 75.554 65.378 73.436 65.378 70.823Z" fill="white"/>
</svg>
