<svg width="39" height="95" viewBox="0 0 39 95" fill="none" xmlns="http://www.w3.org/2000/svg">
<path d="M34.5 72.201L1.04999 75.215L1.06099 90.292C7.15299 94.586 22.107 97.359 34.567 89.516L34.5 72.201Z" fill="#FCB11B"/>
<path d="M9.47101 42.829L10.73 38.21L13.839 35.081L14.025 39.907L9.47101 42.829Z" fill="#6C6B70"/>
<path d="M13.678 39.651L13.997 19.14L23.91 17.886L24.072 38.448L13.678 39.651Z" fill="#FCB11B"/>
<path d="M16.483 31.712L20.226 31.177L20.126 25.657C18.873 24.401 17.633 24.559 16.571 26.213L16.483 31.712Z" fill="white"/>
<path d="M16.927 7.86601L15.948 8.75201V17.445L22.234 16.557L21.968 6.98001L16.927 7.86601Z" fill="#FCB11B"/>
<path d="M17.793 13.763L20.111 13.496L20.014 11.017C19.435 9.98601 18.396 10.063 17.802 11.194L17.793 13.763Z" fill="white"/>
<path d="M9.66801 42.449C5.95501 44.816 4.18802 47.271 4.36102 49.81L4.01001 71.75L0.890015 75.566L1.04802 75.398L34.269 72.502L34.257 89.916C36.03 88.885 37.713 87.608 38.986 86.635L38.856 77.741C38.905 77.837 36.928 74.887 36.928 74.887L36.362 50.405C34.914 44.641 33.029 41.535 30.288 40.852L30.01 40.809L28.342 22.537C28.019 20.272 26.244 17.567 25.508 17.035L24.272 14.381C23.937 11.112 23.724 7.16099 23.724 7.16099C23.613 5.15299 22.712 2.848 20.114 0.188995C16.486 4.091 16.146 6.14 15.949 8.752L21.585 7.86199L22.013 15.874L16.04 16.983C15.167 17.562 14.491 18.106 14.021 18.651C12.521 20.06 11.062 21.289 10.782 24.743M13.941 30.784L13.979 29.115L14.081 25.353L14.069 25.356L14.21 19.634L23.137 18.333L23.444 23.525L23.4 23.509L23.844 38.113L13.711 39.37L13.936 30.782L13.941 30.784ZM25.714 41.575L25.683 49.56L25.6 49.545L9.66901 51.498L9.91602 43.951L25.714 41.575ZM8.34301 72.9L8.25402 54.168L25.75 52.063L25.916 71.122L8.34301 72.9Z" fill="#6C6B70"/>
<path d="M8.133 44.001L26.392 41.519L26.01 71.157L8.223 73.311L8.133 44.001Z" fill="#FCB11B"/>
<path d="M12.378 60.823C12.378 58.212 14.492 56.092 17.098 56.092C19.705 56.092 21.818 58.212 21.818 60.823C21.818 63.435 19.706 65.553 17.098 65.553C14.492 65.554 12.378 63.436 12.378 60.823Z" fill="white"/>
</svg>
